<svg width="30" height="30" viewBox="0 0 32 32" fill="none" xmlns="http://www.w3.org/2000/svg">
<mask id="mask0_15_38" style="mask-type:alpha" maskUnits="userSpaceOnUse" x="0" y="0" width="32" height="32">
<rect width="32" height="32" fill="#D9D9D9"/>
</mask>
<g mask="url(#mask0_15_38)">
<path d="M8.15379 28.6666C7.18513 28.6666 6.36177 28.3301 5.68373 27.657C5.00566 26.9839 4.66663 26.1667 4.66663 25.2051V6.82054C4.66663 5.85188 5.00566 5.02852 5.68373 4.35047C6.36177 3.67241 7.18513 3.33337 8.15379 3.33337H22.4102V23.7436H8.15379C7.74182 23.7436 7.39096 23.8834 7.10123 24.1631C6.81147 24.4428 6.66659 24.7894 6.66659 25.2029C6.66659 25.6163 6.81147 25.9637 7.10123 26.2449C7.39096 26.5261 7.74182 26.6667 8.15379 26.6667H25.3333V6.00004H27.3332V28.6666H8.15379ZM11.5896 21.7436H20.4102V5.33334H11.5896V21.7436ZM9.58969 21.7436V5.33334H8.15379C7.73241 5.33334 7.3792 5.47822 7.09416 5.76797C6.80911 6.05771 6.66659 6.40856 6.66659 6.82054V22.1308C6.89737 22.0214 7.13319 21.9295 7.37406 21.8552C7.61495 21.7808 7.87486 21.7436 8.15379 21.7436H9.58969Z" fill="#1C1B1F"/>
</g>
</svg>
