<svg width="30" height="30" viewBox="0 0 30 30" fill="none" xmlns="http://www.w3.org/2000/svg">
<mask id="mask0_15_42" style="mask-type:alpha" maskUnits="userSpaceOnUse" x="0" y="0" width="30" height="30">
<rect width="30" height="30" fill="#D9D9D9"/>
</mask>
<g mask="url(#mask0_15_42)">
<path d="M11.25 26.2501H6.25C5.5625 26.2501 4.97396 26.0053 4.48438 25.5157C3.99479 25.0261 3.75 24.4376 3.75 23.7501V6.25006C3.75 5.56256 3.99479 4.97402 4.48438 4.48444C4.97396 3.99485 5.5625 3.75006 6.25 3.75006H11.25V6.25006H6.25V23.7501H11.25V26.2501ZM13.75 28.7501V1.25006H16.25V28.7501H13.75ZM18.75 26.2501V23.7501H21.25V26.2501H18.75ZM18.75 6.25006V3.75006H21.25V6.25006H18.75ZM23.75 26.2501V23.7501H26.25C26.25 24.4376 26.0052 25.0261 25.5156 25.5157C25.026 26.0053 24.4375 26.2501 23.75 26.2501ZM23.75 21.2501V18.7501H26.25V21.2501H23.75ZM23.75 16.2501V13.7501H26.25V16.2501H23.75ZM23.75 11.2501V8.75006H26.25V11.2501H23.75ZM23.75 6.25006V3.75006C24.4375 3.75006 25.026 3.99485 25.5156 4.48444C26.0052 4.97402 26.25 5.56256 26.25 6.25006H23.75Z" fill="#1C1B1F"/>
</g>
</svg>
