<svg width="28" height="28" viewBox="0 0 30 30" fill="none" xmlns="http://www.w3.org/2000/svg">
<path d="M15 15.9375C13.5166 15.9375 12.0666 15.4976 10.8332 14.6735C9.59986 13.8494 8.63856 12.6781 8.07091 11.3076C7.50325 9.93718 7.35472 8.42918 7.64411 6.97433C7.9335 5.51947 8.64781 4.1831 9.6967 3.1342C10.7456 2.08531 12.082 1.371 13.5368 1.08161C14.9917 0.792225 16.4997 0.94075 17.8701 1.50841C19.2406 2.07606 20.4119 3.03736 21.236 4.27073C22.0601 5.5041 22.5 6.95414 22.5 8.4375C22.5 10.4266 21.7098 12.3343 20.3033 13.7408C18.8968 15.1473 16.9891 15.9375 15 15.9375ZM15 2.8125C13.8875 2.8125 12.7999 3.1424 11.8749 3.76049C10.9499 4.37857 10.2289 5.25707 9.80318 6.28491C9.37744 7.31274 9.26604 8.44374 9.48309 9.53489C9.70013 10.626 10.2359 11.6283 11.0225 12.415C11.8092 13.2016 12.8115 13.7374 13.9026 13.9544C14.9938 14.1715 16.1248 14.0601 17.1526 13.6343C18.1804 13.2086 19.0589 12.4876 19.677 11.5626C20.2951 10.6376 20.625 9.55002 20.625 8.4375C20.625 6.94566 20.0324 5.51492 18.9775 4.46003C17.9226 3.40514 16.4918 2.8125 15 2.8125Z" fill="#101820"/>
<path d="M21.5625 29.0625H8.4375C7.1943 29.0625 6.00201 28.5687 5.12294 27.6896C4.24386 26.8105 3.75 25.6182 3.75 24.375V20.625C3.75003 20.4623 3.7924 20.3024 3.87294 20.1611C3.95348 20.0197 4.06943 19.9017 4.20937 19.8188L8.89687 17.0063C9.10837 16.9107 9.3478 16.897 9.56883 16.9677C9.78987 17.0385 9.9768 17.1887 10.0934 17.3894C10.2101 17.59 10.2482 17.8268 10.2003 18.0539C10.1525 18.281 10.0221 18.4823 9.83437 18.6188L5.625 21.1594V24.375C5.625 25.1209 5.92132 25.8363 6.44876 26.3638C6.97621 26.8912 7.69158 27.1875 8.4375 27.1875H21.5625C22.3084 27.1875 23.0238 26.8912 23.5512 26.3638C24.0787 25.8363 24.375 25.1209 24.375 24.375V21.1594L20.1469 18.6188C20.0273 18.5647 19.9205 18.4862 19.8332 18.3883C19.7459 18.2904 19.6801 18.1753 19.6401 18.0503C19.6001 17.9254 19.5868 17.7935 19.601 17.6631C19.6152 17.5326 19.6566 17.4067 19.7225 17.2933C19.7884 17.1799 19.8774 17.0815 19.9837 17.0047C20.09 16.9278 20.2113 16.8742 20.3397 16.8471C20.468 16.8201 20.6006 16.8203 20.7289 16.8477C20.8572 16.8751 20.9783 16.9291 21.0844 17.0063L25.7719 19.8188C25.9153 19.8994 26.035 20.0163 26.1189 20.1578C26.2029 20.2994 26.2481 20.4605 26.25 20.625V24.375C26.25 25.6182 25.7561 26.8105 24.8771 27.6896C23.998 28.5687 22.8057 29.0625 21.5625 29.0625Z" fill="#101820"/>
</svg>
